<?xml version="1.0" encoding="UTF-8" standalone="no"?>
<svg
   xmlns:dc="http://purl.org/dc/elements/1.1/"
   xmlns:cc="http://creativecommons.org/ns#"
   xmlns:rdf="http://www.w3.org/1999/02/22-rdf-syntax-ns#"
   xmlns:svg="http://www.w3.org/2000/svg"
   xmlns="http://www.w3.org/2000/svg"
   xmlns:xlink="http://www.w3.org/1999/xlink"
   xml:space="preserve"
   enable-background="new 0 0 1000 1000"
   viewBox="0 0 1000 1000"
   height="1000px"
   width="1000px"
   y="0px"
   x="0px"
   id="Layer_1"
   version="1.1"><metadata
     id="metadata75"><rdf:RDF><cc:Work
         rdf:about=""><dc:format>image/svg+xml</dc:format><dc:type
           rdf:resource="http://purl.org/dc/dcmitype/StillImage" /><dc:title></dc:title></cc:Work></rdf:RDF></metadata><defs
     id="defs73" /><g
     id="g3"><defs
       id="defs5"><circle
         r="400"
         cy="500"
         cx="500"
         id="SVGID_1_" /></defs><clipPath
       id="SVGID_2_"><use
         id="use9"
         overflow="visible"
         xlink:href="#SVGID_1_" /></clipPath><circle
       id="circle11"
       r="397.683"
       cy="500"
       cx="500"
       fill="#98DEE5"
       clip-path="url(#SVGID_2_)" /><g
       id="g13"
       clip-path="url(#SVGID_2_)"><circle
         id="circle15"
         r="127.116"
         cy="205.997"
         cx="626.144"
         fill="#FFFFFF" /><circle
         id="circle17"
         r="115.899"
         cy="91.775"
         cx="784.105"
         fill="#FFFFFF" /><circle
         id="circle19"
         r="101.415"
         cy="243.753"
         cx="784.105"
         fill="#FFFFFF" /><circle
         id="circle21"
         r="75.242"
         cy="254.501"
         cx="897.668"
         fill="#FFFFFF" /><circle
         id="circle23"
         r="75.243"
         cy="164.646"
         cx="935.992"
         fill="#FFFFFF" /><circle
         id="circle25"
         r="75.243"
         cy="243.753"
         cx="1011.234"
         fill="#FFFFFF" /></g><g
       id="g27"
       clip-path="url(#SVGID_2_)"><circle
         id="circle29"
         r="109.686"
         cy="693.594"
         cx="115.296"
         fill="#FFFFFF" /><circle
         id="circle31"
         r="100.007"
         cy="595.034"
         cx="251.597"
         fill="#FFFFFF" /><circle
         id="circle33"
         r="87.508"
         cy="726.172"
         cx="251.596"
         fill="#FFFFFF" /><circle
         id="circle35"
         r="64.925"
         cy="735.446"
         cx="349.587"
         fill="#FFFFFF" /><circle
         id="circle37"
         r="64.925"
         cy="657.912"
         cx="382.656"
         fill="#FFFFFF" /><circle
         id="circle39"
         r="64.925"
         cy="726.172"
         cx="447.581"
         fill="#FFFFFF" /></g><circle
       id="circle41"
       r="400"
       cy="500"
       cx="500"
       fill="none"
       clip-path="url(#SVGID_2_)" /><circle
       id="circle43"
       r="400"
       cy="500"
       cx="500"
       fill="none"
       clip-path="url(#SVGID_2_)" /></g><g
     id="g45"><path
       id="path47"
       d="M432.034,434.624c-3.671-0.159-5.619,4.184-6.637,16.69c-0.928,11.437-0.289,17.496,3.625,17.351   c3.999-0.149,6.122-7.633,6.656-15.477C436.215,445.344,436.059,434.798,432.034,434.624z"
       fill="#A9184B" /><path
       id="path49"
       d="M603.81,401.885c-3.672-0.16-5.621,4.188-6.635,16.704c-0.93,11.453-0.283,17.518,3.627,17.373   c3.996-0.149,6.125-7.64,6.656-15.493C607.989,412.616,607.833,402.062,603.81,401.885z"
       fill="#A9184B" /><path
       id="path51"
       d="M204.357,173.312l118.699,620.324c3.989,20.846,24.124,34.514,44.971,30.523l363.457-69.543   c20.848-3.99,34.516-24.125,30.527-44.971L643.31,89.319c-3.988-20.848-24.125-34.514-44.971-30.524l-363.457,69.547   C214.035,132.331,200.368,152.465,204.357,173.312z M620.333,419.678c-0.965,11.666-8.471,21.339-19.639,21.474   c-4.309,0.052-7.945-0.846-10.811-3.215c-4.076,5.129-12.432,9.775-19.518,7.923c-7.465-1.955-7.227-8.697-6.82-15.921l0.65-6.416   c0.629-7.208,0.797-12.023-1.576-12.067c-2.408-0.045-5.023,2.423-6.492,17.25l-1.42,19.297c-0.068,0.858-0.834,1.692-1.699,1.858   l-11.279,2.158c-0.867,0.166-1.514-0.398-1.445-1.256c0.371-4.447,1.186-16.99,1.729-23.093c0.633-7.175,0.807-11.971-1.562-12.01   c-2.4-0.042-5.004,2.396-6.492,16.975l-1.437,19.613c-0.072,0.858-0.83,1.691-1.701,1.858l-11.279,2.158   c-0.863,0.165-1.512-0.399-1.439-1.257c0.365-4.447,1.229-17.236,1.729-23.343c0.75-8.486-0.023-10.177-1.572-10.345   c-1.863-0.2-4.093,3.561-6.322,13.595c0.488,1.441,0.929,3.059,1.284,4.917c1.757,9.179-2.98,18.959-13.88,21.045   c-4.817,0.922-8.832-0.627-11.186-3.11c-4.31,5.721-11.053,8.363-17.801,7.978c-3.079-0.179-6.117-0.779-8.695-2.674   c-7.97,8.305-16.302,9.425-21.87,4.995c-2.397,3.239-6.881,6.321-12.359,6.097c-3.596-0.144-6.883-1.408-9.515-3.696   c-13.213,15.1-28.054,8.948-26.748-7.511c0.689-8.687,1.343-16.904,1.726-21.734l-1.698,0.323c-3.254,0.622-5.156,2.625-5.454,5.92   c-0.892,9.904-0.782,9.915-1.616,16.834c-1.887,15.725-12.338,23.029-23.857,22.268c-5.958-0.392-11.504-3.894-13.125-11.034   l-0.202-1.054c-0.256-1.559-0.354-3.259-0.222-5.139c0.723-10.433,15.374-12.229,14.479-0.326   c-0.429,5.727-1.589,12.698,2.059,13.127c4.515,0.527,5.272-10.768,6.092-22.699c0.958-13.899,0.96-13.549,0.958-13.899   l-19.3,3.692c-0.654,0.125-1.14-0.263-1.094-0.873c0.046-0.61,0.182-2.205,0.182-2.205c0.046-0.609,0.612-1.207,1.263-1.332   l13.901-2.657c3.247-0.624,5.156-2.622,5.45-5.917c0.895-9.904,0.783-9.913,1.615-16.837c1.886-15.722,12.338-23.025,23.86-22.266   c7.483,0.491,14.335,5.87,13.548,17.227c-0.721,10.431-15.375,12.226-14.481,0.328c0.43-5.728,1.59-12.7-2.053-13.125   c-4.522-0.528-5.272,10.767-6.093,22.699c-0.961,13.893-0.96,13.548-0.961,13.893l20.126-3.851   c0.872-0.167,1.518,0.401,1.448,1.268c-0.433,5.447-1.874,23.613-2.49,31.358c-0.539,6.85,4.642,7.086,9.846,0.239   c-2.498-3.828-3.822-9.233-3.361-16.201c0.97-14.561,9.543-21.84,19.496-21.472c2.135,0.084,3.98,0.58,5.563,1.389l2.205-28.958   c0.067-0.875,0.826-1.721,1.693-1.886l11.785-2.255c0.865-0.164,1.516,0.41,1.447,1.285c-0.624,8.114-3.585,46.712-4.551,59.591   c-0.506,6.612,4.203,7.135,9.164,1.131c-2.299-3.346-3.601-8.255-3.105-15.257c1.332-18.78,17.071-27.572,27.158-22.947   c12.264,5.62,7.818,25.805-12.958,29.994c0.466,4.759,2.074,7.315,5.107,8.211c3.474,1.027,7.757-0.98,11.339-5.947   c-0.134-0.805-0.073-1.59,0.224-2.292c0.847-2.038,3.542-2.745,4.994-0.012c0.941,1.773,2.773,2.822,5.072,2.417   c3.07-0.538,4.678-3.697,3.61-9.421c-1.27-6.792-5.388-9.676-6.649-16.27c-1.079-5.64,0.917-11.273,7.989-12.627   c0.664-0.127,1.322-0.191,1.934-0.17c1.074,0.039,1.433,1.204,1.363,2.257c-0.036,0.62,0.021,1.272,0.145,1.909   c0.685,3.578,2.582,5.963,4.498,9.322c0.908-3.072,2.141-6.547,3.614-8.998c3.244-5.38,7.692-9.886,14.888-8.889   c2.932,0.405,4.688,1.957,5.679,4.34c2.672-4.813,7.455-8.137,12.686-8.333c3.793-0.147,6.699,2.106,8.467,5.7   c2.441-5.622,7.74-9.445,13.551-9.665c7.127-0.268,11.18,6.18,10.34,17.663c0,0-0.562,6.573-1.072,13.599   c-0.371,5.099,2.811,8.355,9.727,0.527c-2.74-3.922-4.092-9.541-3.623-16.656c0.969-14.579,9.035-21.967,20.83-21.849   C613.937,396.512,621.54,405.067,620.333,419.678z"
       fill="#A9184B" /><path
       id="path53"
       d="M479.315,429.604c-4.972-2.25-8.92,4.288-9.654,13.915c-0.07,0.924-0.12,1.804-0.154,2.639   C483.616,443.218,482.77,431.169,479.315,429.604z"
       fill="#A9184B" /><path
       id="path55"
       d="M604.315,396.412c-11.795-0.118-19.861,7.271-20.83,21.849c-0.469,7.115,0.883,12.734,3.623,16.656   c-6.916,7.828-10.098,4.571-9.727-0.527c0.51-7.026,1.072-13.599,1.072-13.599c0.84-11.482-3.213-17.931-10.34-17.663   c-5.811,0.219-11.109,4.042-13.551,9.665c-1.768-3.593-4.674-5.847-8.467-5.7c-5.23,0.196-10.014,3.521-12.686,8.333   c-0.991-2.384-2.747-3.936-5.679-4.34c-7.195-0.997-11.644,3.509-14.888,8.889c-1.474,2.45-2.706,5.925-3.614,8.998   c-1.916-3.358-3.813-5.744-4.498-9.322c-0.124-0.637-0.181-1.29-0.145-1.909c0.069-1.053-0.289-2.218-1.363-2.257   c-0.611-0.021-1.27,0.043-1.934,0.17c-7.073,1.354-9.068,6.987-7.989,12.627c1.262,6.594,5.38,9.478,6.649,16.27   c1.068,5.724-0.54,8.883-3.61,9.421c-2.299,0.405-4.131-0.644-5.072-2.417c-1.452-2.733-4.147-2.026-4.994,0.012   c-0.296,0.702-0.357,1.487-0.224,2.292c-3.582,4.967-7.865,6.975-11.339,5.947c-3.033-0.896-4.641-3.452-5.107-8.211   c20.776-4.188,25.222-24.374,12.958-29.994c-10.087-4.625-25.826,4.167-27.158,22.947c-0.496,7.002,0.807,11.911,3.105,15.257   c-4.96,6.004-9.67,5.481-9.164-1.131c0.966-12.879,3.927-51.477,4.551-59.591c0.068-0.875-0.582-1.449-1.447-1.285l-11.785,2.255   c-0.867,0.165-1.626,1.011-1.693,1.886l-2.205,28.958c-1.583-0.809-3.428-1.305-5.563-1.389   c-9.953-0.368-18.525,6.911-19.496,21.472c-0.461,6.968,0.863,12.373,3.361,16.201c-5.204,6.847-10.385,6.61-9.846-0.239   c0.617-7.745,2.058-25.911,2.49-31.358c0.07-0.866-0.576-1.435-1.448-1.268l-20.126,3.851c0-0.345,0,0,0.961-13.893   c0.821-11.932,1.571-23.227,6.093-22.699c3.643,0.426,2.483,7.397,2.053,13.125c-0.894,11.897,13.76,10.103,14.481-0.328   c0.787-11.357-6.064-16.736-13.548-17.227c-11.521-0.76-21.974,6.543-23.86,22.266c-0.832,6.924-0.721,6.933-1.615,16.837   c-0.294,3.295-2.203,5.293-5.45,5.917l-13.901,2.657c-0.651,0.125-1.217,0.723-1.263,1.332c0,0-0.135,1.595-0.182,2.205   c-0.045,0.61,0.44,0.998,1.094,0.873l19.3-3.692c0.002,0.351,0,0-0.958,13.899c-0.82,11.932-1.577,23.227-6.092,22.699   c-3.647-0.429-2.488-7.4-2.059-13.127c0.895-11.902-13.756-10.106-14.479,0.326c-0.132,1.88-0.035,3.58,0.222,5.139l0.202,1.054   c1.621,7.141,7.167,10.643,13.125,11.034c11.52,0.762,21.97-6.543,23.857-22.268c0.834-6.919,0.724-6.93,1.616-16.834   c0.298-3.295,2.2-5.298,5.454-5.92l1.698-0.323c-0.382,4.83-1.037,13.048-1.726,21.734c-1.306,16.459,13.535,22.61,26.748,7.511   c2.632,2.288,5.919,3.553,9.515,3.696c5.478,0.225,9.962-2.857,12.359-6.097c5.568,4.43,13.899,3.31,21.87-4.995   c2.578,1.895,5.616,2.495,8.695,2.674c6.748,0.386,13.491-2.257,17.801-7.978c2.354,2.483,6.369,4.032,11.186,3.11   c10.899-2.086,15.637-11.866,13.88-21.045c-0.355-1.858-0.796-3.476-1.284-4.917c2.229-10.034,4.459-13.795,6.322-13.595   c1.549,0.168,2.322,1.858,1.572,10.345c-0.5,6.106-1.363,18.896-1.729,23.343c-0.072,0.857,0.576,1.422,1.439,1.257l11.279-2.158   c0.871-0.167,1.629-1,1.701-1.858l1.437-19.613c1.488-14.58,4.092-17.017,6.492-16.975c2.369,0.039,2.195,4.835,1.562,12.01   c-0.543,6.103-1.357,18.646-1.729,23.093c-0.068,0.857,0.578,1.422,1.445,1.256l11.279-2.158c0.865-0.166,1.631-1,1.699-1.858   l1.42-19.297c1.469-14.827,4.084-17.295,6.492-17.25c2.373,0.044,2.205,4.86,1.576,12.067l-0.65,6.416   c-0.406,7.224-0.645,13.966,6.82,15.921c7.086,1.853,15.441-2.794,19.518-7.923c2.865,2.369,6.502,3.267,10.811,3.215   c11.168-0.135,18.674-9.809,19.639-21.474C621.54,405.067,613.937,396.512,604.315,396.412z M469.661,443.519   c0.734-9.627,4.683-16.165,9.654-13.915c3.455,1.565,4.301,13.614-9.809,16.554C469.541,445.323,469.59,444.443,469.661,443.519z    M435.678,453.188c-0.534,7.844-2.657,15.327-6.656,15.477c-3.915,0.146-4.554-5.914-3.625-17.351   c1.018-12.507,2.966-16.85,6.637-16.69C436.059,434.798,436.215,445.344,435.678,453.188z M607.458,420.468   c-0.531,7.854-2.66,15.344-6.656,15.493c-3.91,0.146-4.557-5.92-3.627-17.373c1.014-12.516,2.963-16.863,6.635-16.704   C607.833,402.062,607.989,412.616,607.458,420.468z"
       fill="#FFFFFF" /></g><g
     id="g57"><circle
       id="circle59"
       r="71.357"
       cy="602.718"
       cx="641.505"
       fill="#FFFFFF" /><path
       id="path61"
       d="M795.239,538.601c0,35.931-29.131,65.061-65.062,65.061c-35.93,0-65.061-29.13-65.061-65.061   c0-35.934,29.131-65.062,65.061-65.062C766.108,473.539,795.239,502.667,795.239,538.601z"
       fill="#FFFFFF" /><circle
       id="circle63"
       r="56.929"
       cy="623.913"
       cx="730.178"
       fill="#FFFFFF" /><circle
       id="circle65"
       r="42.238"
       cy="629.946"
       cx="793.927"
       fill="#FFFFFF" /><circle
       id="circle67"
       r="42.238"
       cy="579.505"
       cx="815.438"
       fill="#FFFFFF" /><circle
       id="circle69"
       r="42.237"
       cy="623.913"
       cx="857.678"
       fill="#FFFFFF" /></g></svg>